<svg version="1.1" id="Layer_1" xmlns="http://www.w3.org/2000/svg" xmlns:xlink="http://www.w3.org/1999/xlink" x="0px" y="0px" viewBox="0 0 500 500" style="width: 186px;" xml:space="preserve" data-imageid="data-analysis-1-53" imageName="Data Analysis 1" class="illustrations_image">
<style type="text/css">
	.st0_data-analysis-1-53{fill:#FFBC0E;}
	.st1_data-analysis-1-53{fill:#093F68;}
	.st2_data-analysis-1-53{fill:#F56132;}
	.st3_data-analysis-1-53{fill:#68E1FD;}
	.st4_data-analysis-1-53{fill:#FFFFFF;}
	.st5_data-analysis-1-53{fill:#DFEAEF;}
	.st6_data-analysis-1-53{fill:#725858;}
	.st7_data-analysis-1-53{fill:#70CC40;}
	.st8_data-analysis-1-53{fill:#FFC9B0;}
</style>
<g id="gears_data-analysis-1-53">
	<g id="ahcQ9Z_data-analysis-1-53">
		<path class="st0_data-analysis-1-53" d="M274.5,398c-0.1-1.8-1.3-3.3-3.1-3.7c-1.5-0.3-3-0.6-4.5-0.8c-0.4,0-0.8-0.3-0.9-0.7&#10;&#9;&#9;&#9;c-0.4-1.2-0.9-2.4-1.5-3.5c-0.2-0.3-0.1-0.7,0.1-0.9c0.9-1.2,1.8-2.5,2.7-3.8c1-1.5,0.8-3.5-0.4-4.8c-1.4-1.5-2.9-2.9-4.3-4.4&#10;&#9;&#9;&#9;c-1.5-1.7-4-1.9-5.8-0.5c-1.1,0.8-2.3,1.6-3.4,2.4c-0.2,0.2-0.6,0.3-0.9,0.1c-1.3-0.6-2.6-1.1-3.9-1.6c-0.3-0.1-0.6-0.4-0.6-0.7&#10;&#9;&#9;&#9;c-0.2-1.4-0.4-2.8-0.7-4.1c-0.3-2-2-3.5-4-3.6h-6.4c-1.9,0-3.5,1.3-3.9,3.1c-0.4,1.5-0.6,3.1-0.8,4.7c0,0.3-0.3,0.6-0.6,0.7&#10;&#9;&#9;&#9;c-1.2,0.5-2.5,1-3.7,1.6c-0.3,0.2-0.7,0.1-0.9-0.1c-1.2-0.9-2.4-1.8-3.7-2.6c-1.5-1-3.5-0.9-4.9,0.3c-1.6,1.5-3.2,3-4.7,4.6&#10;&#9;&#9;&#9;c-1.5,1.4-1.6,3.8-0.3,5.4c0.8,1.2,1.7,2.4,2.5,3.6c0.1,0.2,0.1,0.4,0.1,0.6c-0.5,1.3-1.1,2.7-1.6,4c-0.1,0.2-0.3,0.4-0.5,0.4&#10;&#9;&#9;&#9;c-1.4,0.3-2.8,0.5-4.1,0.7c-2,0.2-3.6,1.9-3.7,3.9c-0.1,2.2-0.1,4.4,0,6.6c0.1,1.8,1.3,3.3,3.1,3.7c1.6,0.4,3.2,0.6,4.8,0.9&#10;&#9;&#9;&#9;c0.3,0,0.6,0.2,0.7,0.5c0.5,1.3,1,2.5,1.6,3.7c0.2,0.3,0.1,0.6-0.1,0.8c-0.8,1.1-1.7,2.3-2.5,3.5c-1.3,1.7-1.1,4.1,0.5,5.6&#10;&#9;&#9;&#9;c1.3,1.4,2.7,2.7,4,4c1.5,1.6,4,1.8,5.7,0.4c1.2-0.8,2.3-1.6,3.5-2.5c0.2-0.2,0.5-0.2,0.8-0.1l3.6,1.5c0.4,0.1,0.6,0.4,0.6,0.8&#10;&#9;&#9;&#9;c0.2,1.4,0.4,2.7,0.7,4.1c0.3,1.9,1.9,3.4,3.8,3.6c2.2,0.1,4.5,0.1,6.7,0c1.8-0.1,3.3-1.4,3.7-3.1c0.3-1.5,0.6-3,0.8-4.6&#10;&#9;&#9;&#9;c0-0.4,0.3-0.7,0.6-0.8c1.2-0.5,2.5-1,3.7-1.5c0.3-0.1,0.6-0.1,0.8,0.1c1.1,0.8,2.3,1.6,3.4,2.5c0.8,0.6,1.8,0.9,2.8,0.8&#10;&#9;&#9;&#9;c0.9,0,1.8-0.4,2.5-1c1.5-1.4,2.9-2.8,4.3-4.2c1.7-1.5,1.9-4.1,0.5-5.9c-0.8-1.1-1.6-2.2-2.4-3.4c-0.2-0.2-0.2-0.5-0.1-0.8&#10;&#9;&#9;&#9;c0.6-1.2,1.1-2.5,1.6-3.8c0.1-0.3,0.4-0.5,0.7-0.6c1.4-0.2,2.8-0.4,4.1-0.7c2-0.3,3.5-1.9,3.6-3.9&#10;&#9;&#9;&#9;C274.5,402.3,274.6,400.2,274.5,398z M240.5,416c-8.1,0-14.7-6.6-14.7-14.7c0-8.1,6.6-14.7,14.7-14.7c8.1,0,14.7,6.6,14.7,14.7&#10;&#9;&#9;&#9;C255.2,409.4,248.6,416,240.5,416z"/>
		<path class="st1_data-analysis-1-53" d="M240.2,437c-1.1,0-2.3,0-3.4-0.1c-2.6-0.3-4.8-2.3-5.2-4.9c-0.3-1.2-0.5-2.5-0.7-3.9l-3-1.2&#10;&#9;&#9;&#9;c-1.2,0.9-2.2,1.6-3.2,2.3c-2.3,1.8-5.7,1.6-7.7-0.6l-1.3-1.2c-0.9-0.9-1.8-1.8-2.7-2.7c-2.1-2-2.4-5.3-0.6-7.6&#10;&#9;&#9;&#9;c0.6-0.9,1.3-1.9,2-2.8l0.3-0.4c-0.4-0.9-0.8-1.9-1.3-3l-1.3-0.2c-1.1-0.2-2.2-0.4-3.3-0.6c-2.4-0.5-4.1-2.6-4.2-5.1&#10;&#9;&#9;&#9;c-0.1-2.2-0.1-4.5,0-6.8c0.1-2.8,2.3-5,5-5.3l0.5-0.1c1-0.1,2-0.3,3.1-0.5c0.2-0.5,0.4-1.1,0.6-1.6s0.4-1,0.6-1.5&#10;&#9;&#9;&#9;c-0.3-0.5-0.6-1-1-1.4s-0.9-1.2-1.2-1.8c-1.7-2.2-1.6-5.4,0.4-7.3c1.5-1.6,3.1-3.1,4.7-4.6c1.9-1.7,4.7-1.8,6.8-0.5&#10;&#9;&#9;&#9;c1.2,0.7,2.4,1.6,3.5,2.4c0.9-0.4,1.7-0.8,2.6-1.1l0.6-0.2c0.2-1.5,0.4-3,0.8-4.5c0.6-2.5,2.8-4.2,5.4-4.2h6.4&#10;&#9;&#9;&#9;c2.7,0.1,5,2.1,5.5,4.8c0.3,1.2,0.5,2.5,0.7,3.8c1.1,0.4,2.2,0.9,3.4,1.4l1.4-1c0.6-0.4,1.1-0.8,1.7-1.2c2.4-1.9,5.8-1.6,7.8,0.7&#10;&#9;&#9;&#9;c0.7,0.7,1.4,1.4,2.1,2.1s1.5,1.5,2.2,2.2c1.7,1.8,1.9,4.6,0.5,6.7c-0.8,1.2-1.7,2.4-2.5,3.5c0.5,1,0.9,2,1.3,3.1&#10;&#9;&#9;&#9;c1.5,0.2,2.9,0.5,4.3,0.8c2.4,0.5,4.2,2.6,4.3,5.1c0,0,0,0.1,0,0.1c0.1,2.2-0.1,4.4-0.3,6.6c-0.2,2.7-2.2,4.8-4.8,5.2&#10;&#9;&#9;&#9;c-1.2,0.3-2.5,0.5-3.8,0.7c-0.4,1.1-0.9,2.2-1.3,3.2c0.7,1.1,1.4,2,2.1,3c1.9,2.4,1.6,5.9-0.7,8c-1.3,1.3-2.8,2.8-4.3,4.2&#10;&#9;&#9;&#9;c-2,1.8-5,1.9-7.2,0.3c-0.8-0.6-1.6-1.2-2.4-1.8l-0.7-0.5l-1.5,0.6l-1.6,0.6c-0.2,1.5-0.5,3-0.8,4.4c-0.5,2.4-2.6,4.2-5.1,4.3&#10;&#9;&#9;&#9;C242.6,437,241.4,437,240.2,437z M233.9,427.6c0.2,1.5,0.4,2.6,0.7,3.9c0.2,1.3,1.2,2.3,2.5,2.4c2.1,0.1,4.3,0.1,6.5,0&#10;&#9;&#9;&#9;c1.1-0.1,2.1-0.9,2.3-2c0.3-1.5,0.6-2.9,0.8-4.4c0.1-0.9,0.7-1.8,1.6-2.1l1.8-0.8c0.6-0.2,1.2-0.5,1.8-0.7h0.1&#10;&#9;&#9;&#9;c0.8-0.3,1.6-0.1,2.2,0.4c0.3,0.2,0.6,0.4,0.9,0.6c0.8,0.6,1.7,1.2,2.5,1.9c0.5,0.4,1.1,0.5,1.7,0.5h0.1c0.6,0,1.1-0.3,1.5-0.6&#10;&#9;&#9;&#9;c1.4-1.3,2.9-2.8,4.2-4.1c1.1-1,1.3-2.7,0.4-3.9l-0.1-0.1c-0.8-1.1-1.6-2.1-2.4-3.3c-0.5-0.6-0.6-1.5-0.3-2.2c0-0.1,0-0.1,0.1-0.2&#10;&#9;&#9;&#9;c0.6-1.1,1.1-2.4,1.5-3.7c0.3-0.7,0.9-1.3,1.6-1.5l0.3-0.1c1.4-0.2,2.7-0.4,4-0.7h0.1c1.3-0.2,2.3-1.2,2.3-2.5c0,0,0-0.1,0-0.1&#10;&#9;&#9;&#9;c0.2-2.1,0.3-4.2,0.3-6.2c-0.1-1.1-0.8-2-1.9-2.3c-1.4-0.3-2.9-0.6-4.3-0.8c-1-0.1-1.9-0.8-2.2-1.8c-0.4-1.1-0.8-2.2-1.4-3.2&#10;&#9;&#9;&#9;c-0.5-0.8-0.4-1.8,0.1-2.5c0.9-1.3,1.8-2.6,2.7-3.8c0.6-0.9,0.5-2.1-0.3-2.9c-0.7-0.7-1.4-1.4-2.1-2.1s-1.5-1.5-2.2-2.2&#10;&#9;&#9;&#9;c-1-1.1-2.6-1.3-3.8-0.3c-0.6,0.4-1.2,0.8-1.8,1.2l-1.7,1.2c-0.7,0.6-1.7,0.6-2.5,0.2c-1.2-0.6-2.5-1.1-3.7-1.5&#10;&#9;&#9;&#9;c-0.9-0.3-1.5-1.1-1.6-2c-0.2-1.3-0.4-2.7-0.7-3.9c0,0,0-0.1,0-0.1c-0.2-1.3-1.3-2.3-2.6-2.3h-6.3c-1.2,0-2.2,0.8-2.4,1.9&#10;&#9;&#9;&#9;c-0.4,1.5-0.6,3-0.8,4.5c-0.1,0.9-0.7,1.7-1.6,2l-0.8,0.3c-0.9,0.4-1.9,0.8-2.7,1.2c-0.8,0.4-1.7,0.4-2.5-0.2l-0.1-0.1&#10;&#9;&#9;&#9;c-1.2-0.9-2.3-1.8-3.6-2.5c-1-0.7-2.3-0.6-3.1,0.2c-1.5,1.4-3.1,2.9-4.6,4.5c-1,0.9-1.1,2.4-0.2,3.4l0.1,0.1&#10;&#9;&#9;&#9;c0.4,0.6,0.8,1.2,1.2,1.8s0.9,1.2,1.3,1.8l0.1,0.2c0.2,0.4,0.3,0.8,0.3,1.3c0,0.2,0,0.4-0.1,0.5l-0.8,2c-0.3,0.7-0.6,1.3-0.8,2&#10;&#9;&#9;&#9;l-0.1,0.1c-0.3,0.6-0.9,1.1-1.6,1.2c-1.2,0.3-2.4,0.4-3.6,0.6l-0.6,0.1c-1.3,0.1-2.3,1.2-2.4,2.5c-0.1,2.1-0.1,4.3,0,6.5&#10;&#9;&#9;&#9;c0,1.1,0.8,2.1,1.9,2.3c1,0.3,2.1,0.4,3.1,0.6l1.5,0.3c0.9,0.1,1.7,0.7,1.9,1.5c0.4,1.2,0.9,2.3,1.5,3.4c0.5,0.8,0.4,1.8-0.2,2.5&#10;&#9;&#9;&#9;l-0.5,0.6c-0.7,0.9-1.3,1.8-2,2.7c-0.9,1.1-0.8,2.7,0.3,3.7l0.1,0.1c0.8,0.9,1.8,1.8,2.6,2.6l1.3,1.3c1,1.1,2.6,1.2,3.7,0.3&#10;&#9;&#9;&#9;l0.1-0.1c1-0.7,2-1.4,3.4-2.4c0.6-0.5,1.5-0.7,2.2-0.4h0.1l3.5,1.5C233.2,425.7,233.9,426.6,233.9,427.6L233.9,427.6z&#10;&#9;&#9;&#9; M228.5,426.6L228.5,426.6z M213.3,410.6C213.3,410.6,213.3,410.6,213.3,410.6C213.3,410.6,213.3,410.6,213.3,410.6L213.3,410.6z&#10;&#9;&#9;&#9; M267.2,410.2L267.2,410.2L267.2,410.2z M249.1,374.4L249.1,374.4z M240.5,417.6h-0.1c-9,0-16.2-7.3-16.2-16.3&#10;&#9;&#9;&#9;c0-9,7.3-16.2,16.3-16.2c9,0,16.2,7.3,16.2,16.3C256.7,410.3,249.4,417.5,240.5,417.6z M240.5,388.2c-7.3,0-13.2,5.9-13.2,13.2&#10;&#9;&#9;&#9;s5.9,13.2,13.2,13.2c7.3,0,13.2-5.9,13.2-13.2C253.7,394.1,247.8,388.1,240.5,388.2C240.5,388.1,240.5,388.1,240.5,388.2&#10;&#9;&#9;&#9;L240.5,388.2z"/>
	</g>
	<g id="ahcQ9Z-2_data-analysis-1-53">
		<path class="st2_data-analysis-1-53" d="M331.4,379.1c-0.1-1.3-1-2.4-2.3-2.8l-3.3-0.6c-0.3,0-0.6-0.2-0.7-0.5c-0.3-0.9-0.7-1.8-1.1-2.6&#10;&#9;&#9;&#9;c-0.1-0.2-0.1-0.5,0-0.7c0.7-0.9,1.4-1.9,2-2.8c0.7-1.1,0.6-2.6-0.3-3.6c-1-1.1-2.1-2.2-3.2-3.2c-1.1-1.2-3-1.4-4.3-0.4&#10;&#9;&#9;&#9;c-0.8,0.6-1.7,1.2-2.5,1.8c-0.2,0.2-0.5,0.2-0.7,0.1c-0.9-0.4-1.9-0.8-2.9-1.2c-0.2-0.1-0.4-0.3-0.4-0.5c-0.2-1-0.3-2-0.5-3.1&#10;&#9;&#9;&#9;c-0.2-1.5-1.5-2.6-3-2.6h-4.7c-1.4,0-2.6,1-2.9,2.3c-0.3,1.1-0.4,2.3-0.6,3.5c0,0.2-0.2,0.5-0.4,0.5l-2.7,1.2&#10;&#9;&#9;&#9;c-0.2,0.1-0.4,0.1-0.6,0c-0.9-0.7-1.8-1.4-2.8-2c-1.1-0.8-2.6-0.7-3.6,0.2c-1.2,1.1-2.4,2.2-3.5,3.4c-1.1,1.1-1.2,2.8-0.2,4&#10;&#9;&#9;&#9;c0.6,0.9,1.2,1.8,1.9,2.6c0.1,0.2,0.1,0.3,0,0.5c-0.4,1-0.8,2-1.2,2.9c-0.1,0.2-0.2,0.3-0.4,0.3c-1,0.2-2,0.4-3,0.5&#10;&#9;&#9;&#9;c-1.5,0.2-2.6,1.4-2.7,2.9v4.9c0.1,1.3,1,2.4,2.3,2.7c1.2,0.3,2.4,0.4,3.5,0.6c0.2,0,0.4,0.2,0.5,0.4c0.4,0.9,0.8,1.9,1.2,2.8&#10;&#9;&#9;&#9;c0.1,0.2,0.1,0.5-0.1,0.6c-0.6,0.8-1.2,1.7-1.8,2.5c-1,1.3-0.8,3.1,0.4,4.1l3,3c1.1,1.2,3,1.4,4.2,0.3c0.9-0.6,1.7-1.2,2.5-1.8&#10;&#9;&#9;&#9;c0.2-0.1,0.4-0.1,0.6,0c0.9,0.4,1.7,0.8,2.6,1.1c0.3,0.1,0.5,0.3,0.5,0.6c0.1,1,0.3,2,0.5,3c0.2,1.4,1.4,2.5,2.8,2.6&#10;&#9;&#9;&#9;c1.6,0.1,3.3,0,5,0c1.3-0.1,2.4-1,2.8-2.3c0.2-1.1,0.4-2.2,0.6-3.4c0-0.3,0.2-0.5,0.5-0.6c0.9-0.4,1.8-0.7,2.8-1.1&#10;&#9;&#9;&#9;c0.2-0.1,0.5-0.1,0.6,0.1c0.9,0.6,1.7,1.2,2.5,1.8c0.6,0.4,1.4,0.6,2.1,0.6c0.7,0,1.3-0.3,1.8-0.8c1.1-1,2.1-2.1,3.2-3.1&#10;&#9;&#9;&#9;c1.3-1.1,1.4-3,0.4-4.3c-0.6-0.8-1.2-1.7-1.8-2.5c-0.1-0.2-0.2-0.4-0.1-0.6c0.4-0.9,0.8-1.9,1.2-2.8c0.1-0.2,0.3-0.4,0.5-0.4&#10;&#9;&#9;&#9;c1-0.1,2-0.3,3-0.5c1.5-0.2,2.6-1.4,2.7-2.9C331.5,382.3,331.5,380.7,331.4,379.1z M306.2,392.4c-6,0-10.9-4.9-10.9-10.9&#10;&#9;&#9;&#9;s4.9-10.9,10.9-10.9c6,0,10.9,4.9,10.9,10.9l0,0C317.1,387.5,312.2,392.4,306.2,392.4z"/>
		<path class="st1_data-analysis-1-53" d="M305.1,408.1c-0.6,0-1.2,0-1.7,0l0,0c-2.1-0.1-3.9-1.7-4.2-3.9c-0.2-0.8-0.3-1.7-0.5-2.5&#10;&#9;&#9;&#9;c-0.6-0.2-1.1-0.5-1.6-0.7l-0.2-0.1c-0.6,0.5-1.3,0.9-2,1.4c-1.9,1.5-4.6,1.3-6.2-0.5l-2.9-2.9c-1.8-1.6-2-4.3-0.6-6.1&#10;&#9;&#9;&#9;c0.3-0.4,0.6-0.8,0.9-1.2l0.6-0.9c-0.1-0.3-0.3-0.6-0.4-0.9l-0.4-1l-0.8-0.1c-0.8-0.1-1.6-0.3-2.4-0.4c-1.9-0.4-3.3-2.1-3.4-4v-5&#10;&#9;&#9;&#9;c0.1-2.2,1.8-4.1,4-4.4c0.8-0.1,1.6-0.2,2.4-0.4c0.2-0.6,0.5-1.2,0.8-1.9c-0.6-0.7-1-1.4-1.5-2.1c-1.4-1.8-1.3-4.3,0.3-6&#10;&#9;&#9;&#9;c1.1-1.2,2.4-2.4,3.5-3.5c1.5-1.4,3.8-1.5,5.4-0.4c0.8,0.5,1.6,1.1,2.4,1.7l1.9-0.8l0.1-0.7c0.1-0.9,0.3-1.7,0.5-2.5&#10;&#9;&#9;&#9;c0.5-2,2.3-3.4,4.4-3.4h4.7c2.3,0,4.2,1.7,4.5,3.9c0.1,0.5,0.2,1,0.2,1.5s0.1,0.8,0.2,1.1c0.7,0.3,1.4,0.6,2.1,0.9&#10;&#9;&#9;&#9;c0.3-0.2,0.6-0.4,0.9-0.6l1.2-0.9c1.9-1.4,4.6-1.2,6.2,0.5c1.1,1,2.2,2.1,3.3,3.3c1.3,1.5,1.5,3.7,0.5,5.4&#10;&#9;&#9;&#9;c-0.6,0.9-1.2,1.7-1.7,2.4c0.3,0.6,0.6,1.3,0.8,1.9l3,0.5h0.2c1.9,0.5,3.2,2.2,3.4,4.1l0,0c0.1,1.7,0.1,3.3-0.1,5&#10;&#9;&#9;&#9;c-0.2,2.2-1.8,3.9-4,4.2c-0.8,0.2-1.6,0.3-2.5,0.5c-0.1,0.3-0.3,0.6-0.4,0.9l-0.4,0.9l0.6,0.9c0.3,0.4,0.6,0.8,0.9,1.2&#10;&#9;&#9;&#9;c1.5,1.9,1.2,4.7-0.6,6.3c-0.5,0.5-1,1-1.5,1.5s-1.1,1.1-1.7,1.6c-0.7,0.8-1.7,1.2-2.8,1.2c-1,0-2.1-0.3-2.9-0.9l-0.1-0.1&#10;&#9;&#9;&#9;c-0.7-0.5-1.4-1-2.1-1.5l-0.7,0.3c-0.5,0.2-0.9,0.3-1.3,0.5c-0.2,1-0.4,2-0.5,3c0,0.1,0,0.1,0,0.2c-0.5,1.9-2.2,3.2-4.1,3.4&#10;&#9;&#9;&#9;c-0.6,0-1.2,0-1.8,0L305.1,408.1z M301.7,400.9c0.1,0.9,0.3,1.8,0.5,2.8c0.1,0.7,0.6,1.3,1.3,1.4c1.1,0.1,2.1,0,3.3,0h1.7&#10;&#9;&#9;&#9;c0.7-0.1,1.2-0.5,1.4-1.2c0.2-1,0.4-2.1,0.6-3.2c0.1-0.8,0.6-1.6,1.4-1.8c0.6-0.2,1.1-0.5,1.7-0.7l1-0.4c0.7-0.3,1.5-0.2,2.1,0.3&#10;&#9;&#9;&#9;c0.9,0.6,1.7,1.2,2.4,1.8c0.4,0.2,0.8,0.3,1.2,0.3c0.3,0,0.6-0.1,0.7-0.4c0.6-0.5,1.1-1,1.6-1.5s1.1-1.1,1.6-1.6&#10;&#9;&#9;&#9;c0.7-0.6,0.8-1.6,0.2-2.3c-0.3-0.4-0.6-0.9-0.9-1.3s-0.6-0.8-0.9-1.2c-0.1-0.1-0.1-0.1-0.1-0.2c-0.4-0.6-0.4-1.3-0.1-1.9l0.6-1.3&#10;&#9;&#9;&#9;c0.2-0.5,0.4-1,0.6-1.4c0.3-0.7,1-1.2,1.8-1.3c0.9-0.1,1.8-0.3,2.8-0.5c0.8-0.1,1.5-0.7,1.5-1.5c0.2-1.5,0.2-3,0.1-4.5&#10;&#9;&#9;&#9;c-0.1-0.7-0.5-1.2-1.2-1.5l-3.1-0.6c-0.9-0.1-1.7-0.7-2-1.5c-0.3-0.8-0.6-1.6-1-2.4c-0.3-0.6-0.3-1.4,0-2c0-0.1,0.1-0.2,0.1-0.2&#10;&#9;&#9;&#9;c0.6-0.8,1.2-1.7,1.9-2.7c0.3-0.6,0.3-1.3-0.2-1.8c-1-1-2-2.1-3.1-3.1l-0.1-0.1c-0.6-0.6-1.6-0.7-2.3-0.2c-0.4,0.3-0.9,0.6-1.3,1&#10;&#9;&#9;&#9;l-1.1,0.8c-0.6,0.6-1.6,0.7-2.3,0.3c-0.8-0.4-1.8-0.7-2.7-1.1l-0.2-0.1c-0.7-0.3-1.1-0.9-1.2-1.6c-0.1-0.5-0.2-1.1-0.3-1.6&#10;&#9;&#9;&#9;s-0.1-0.9-0.2-1.4c-0.1-0.8-0.7-1.4-1.5-1.4h-4.7c-0.7,0-1.3,0.6-1.5,1.2c-0.2,0.7-0.3,1.4-0.4,2.1c0,0.4-0.1,0.7-0.2,1.1&#10;&#9;&#9;&#9;c-0.1,0.8-0.7,1.5-1.4,1.8l-2.5,1.1c-0.6,0.3-1.3,0.3-1.9,0c-0.1,0-0.2-0.1-0.3-0.2c-0.8-0.7-1.7-1.3-2.6-1.9l-0.1-0.1&#10;&#9;&#9;&#9;c-0.5-0.4-1.2-0.3-1.7,0.1c-1.1,1-2.3,2.1-3.4,3.3c-0.6,0.5-0.6,1.4-0.1,2l0.1,0.1c0.5,0.8,1.1,1.7,1.8,2.4&#10;&#9;&#9;&#9;c0.5,0.6,0.6,1.4,0.3,2.1c-0.4,1-0.8,2-1.2,2.9c-0.3,0.6-0.9,1.1-1.6,1.2c-1,0.2-2,0.4-3,0.5c-0.8,0.1-1.3,0.7-1.4,1.5v4.6&#10;&#9;&#9;&#9;c0.1,0.6,0.5,1.2,1.1,1.3c0.7,0.2,1.4,0.3,2.1,0.4l1.2,0.2c0.7,0.1,1.4,0.6,1.7,1.2c0.2,0.5,0.4,1,0.6,1.5s0.4,0.9,0.6,1.4&#10;&#9;&#9;&#9;c0.3,0.7,0.2,1.6-0.3,2.2c-0.3,0.4-0.5,0.8-0.8,1.1s-0.6,0.9-0.9,1.3c-0.5,0.6-0.4,1.5,0.2,2l0.1,0.1l3,3c0.5,0.7,1.4,0.8,2.1,0.3&#10;&#9;&#9;&#9;l0.2-0.1c0.9-0.6,1.7-1.2,2.4-1.8c0.1-0.1,0.1-0.1,0.2-0.1c0.6-0.3,1.3-0.3,2,0l0.6,0.3c0.6,0.3,1.2,0.5,1.8,0.8&#10;&#9;&#9;&#9;C301.1,399.2,301.7,400,301.7,400.9z M296.5,400.7L296.5,400.7z M286.9,391.2L286.9,391.2z M325.3,391L325.3,391&#10;&#9;&#9;&#9;C325.3,391,325.3,391,325.3,391z M286.5,374.4L286.5,374.4z M325.4,372L325.4,372z M314.6,362.7L314.6,362.7z M296.3,362.6&#10;&#9;&#9;&#9;L296.3,362.6L296.3,362.6z M315.5,362.5L315.5,362.5L315.5,362.5z M299.6,361.3L299.6,361.3z M306.2,394&#10;&#9;&#9;&#9;c-6.8,0-12.4-5.6-12.4-12.4s5.6-12.4,12.4-12.4s12.4,5.6,12.4,12.4l0,0C318.6,388.4,313,393.9,306.2,394L306.2,394z M306.2,372.2&#10;&#9;&#9;&#9;c-5.2,0-9.4,4.2-9.4,9.4s4.2,9.4,9.4,9.4c5.2,0,9.4-4.2,9.4-9.4l0,0C315.6,376.4,311.5,372.1,306.2,372.2&#10;&#9;&#9;&#9;C306.2,372.1,306.2,372.1,306.2,372.2L306.2,372.2z"/>
	</g>
</g>
<g id="arrows_data-analysis-1-53">
	<path class="st1_data-analysis-1-53" d="M416.2,401.9h-77.8c-1-0.1-1.8-1-1.7-2c0.1-0.9,0.8-1.6,1.7-1.7h75.9V378c0-1,0.8-1.9,1.8-1.9&#10;&#9;&#9;c0.9,0,1.7,0.7,1.9,1.6V400C418,401,417.2,401.8,416.2,401.9L416.2,401.9z"/>
	<path class="st1_data-analysis-1-53" d="M188.7,401.9h-76.6c-1,0-1.8-0.8-1.8-1.8c0,0,0,0,0,0l0,0v-27.5c0-1,0.8-1.9,1.8-1.9c0.9,0,1.7,0.7,1.9,1.6&#10;&#9;&#9;v25.9h74.8c1-0.1,2,0.6,2.1,1.6c0.1,1-0.6,2-1.6,2.1c-0.1,0-0.2,0-0.2,0L188.7,401.9z"/>
	<path class="st1_data-analysis-1-53" d="M179.5,412.1c-1,0-1.8-0.8-1.8-1.8c0,0,0,0,0,0c0-0.6,0.2-1.1,0.7-1.4l10.7-8.7l-10.6-7.4&#10;&#9;&#9;c-0.8-0.7-0.8-1.8-0.2-2.6c0.6-0.6,1.5-0.8,2.3-0.4l12.6,8.8c0.5,0.3,0.8,0.8,0.8,1.4c0,0.6-0.2,1.1-0.7,1.5l-12.6,10.2&#10;&#9;&#9;C180.4,412,179.9,412.1,179.5,412.1z"/>
	<path class="st1_data-analysis-1-53" d="M364.7,412.1c-1,0-1.8-0.8-1.8-1.8c0,0,0,0,0,0c0-0.6,0.2-1.1,0.7-1.4l10.7-8.7l-10.6-7.4&#10;&#9;&#9;c-0.8-0.6-1.1-1.7-0.5-2.5c0.5-0.8,1.5-1,2.3-0.7c0.1,0.1,0.2,0.1,0.3,0.2l12.6,8.8c0.8,0.6,1,1.7,0.5,2.6&#10;&#9;&#9;c-0.1,0.1-0.2,0.3-0.4,0.4l-12.6,10.1C365.6,411.9,365.1,412.1,364.7,412.1z"/>
</g>
<g id="data_data-analysis-1-53">
	<path class="st3_data-analysis-1-53 targetColor" d="M467.6,323.5v31.9c0,9-25.3,16.2-56.6,16.2s-56.5-7.3-56.5-16.2v-31.9H467.6z" style="fill: rgb(104, 225, 253);"/>
	<path class="st1_data-analysis-1-53" d="M411,373.1c-37.6,0-58-9.1-58-17.8v-31.9c0-0.8,0.6-1.4,1.4-1.4c0,0,0,0,0,0h113.1c0.8,0,1.4,0.6,1.4,1.4&#10;&#9;&#9;c0,0,0,0,0,0v31.9C469,364,448.6,373.1,411,373.1z M355.9,325v30.5c0,7,22.6,14.8,55.1,14.8s55.1-7.8,55.1-14.8V325H355.9z"/>
	<ellipse class="st1_data-analysis-1-53" cx="411" cy="323.5" rx="56.6" ry="16.2"/>
	<path class="st1_data-analysis-1-53" d="M411,341.2c-37.6,0-58-9.1-58-17.8s20.4-17.8,58-17.8s58,9.2,58,17.8S448.6,341.2,411,341.2z M411,308.6&#10;&#9;&#9;c-32.4,0-55.1,7.8-55.1,14.8s22.6,14.8,55.1,14.8s55.1-7.8,55.1-14.8S443.4,308.6,411,308.6z"/>
	<path class="st1_data-analysis-1-53" d="M459,355.2c-0.8,0-1.4-0.6-1.4-1.4c0,0,0,0,0,0v-12.5c-0.1-0.8,0.5-1.5,1.3-1.6c0.8-0.1,1.5,0.5,1.6,1.3v12.7&#10;&#9;&#9;C460.5,354.6,459.9,355.2,459,355.2C459,355.2,459,355.2,459,355.2z"/>
	<path class="st3_data-analysis-1-53 targetColor" d="M467.6,279.9v31.9c0,9-25.3,16.2-56.6,16.2s-56.5-7.2-56.5-16.2v-31.9H467.6z" style="fill: rgb(104, 225, 253);"/>
	<path class="st1_data-analysis-1-53" d="M411,329.5c-37.6,0-58-9.1-58-17.8v-31.9c0-0.8,0.6-1.4,1.4-1.4c0,0,0,0,0,0h113.1c0.8,0,1.4,0.6,1.4,1.4&#10;&#9;&#9;c0,0,0,0,0,0v31.9C469,320.4,448.6,329.5,411,329.5z M355.9,281.4v30.5c0,7,22.6,14.8,55.1,14.8s55.1-7.8,55.1-14.8v-30.5&#10;&#9;&#9;L355.9,281.4z"/>
	<ellipse class="st1_data-analysis-1-53" cx="411" cy="279.9" rx="56.6" ry="16.2"/>
	<path class="st1_data-analysis-1-53" d="M411,297.7c-37.6,0-58-9.2-58-17.8s20.4-17.8,58-17.8s58,9.1,58,17.8S448.6,297.7,411,297.7z M411,265.1&#10;&#9;&#9;c-32.4,0-55.1,7.8-55.1,14.8s22.6,14.8,55.1,14.8s55.1-7.8,55.1-14.8S443.4,265.1,411,265.1z"/>
	<path class="st1_data-analysis-1-53" d="M459,311.6c-0.8,0-1.4-0.6-1.4-1.4c0,0,0,0,0,0v-12.5c0.1-0.8,0.8-1.4,1.6-1.3c0.7,0.1,1.3,0.6,1.3,1.3v12.5&#10;&#9;&#9;C460.5,311,459.9,311.6,459,311.6C459,311.6,459,311.6,459,311.6L459,311.6z"/>
	<path class="st1_data-analysis-1-53" d="M452.3,314.9c-0.8,0-1.4-0.6-1.4-1.4c0,0,0,0,0,0l0,0V301c0.1-0.8,0.8-1.4,1.6-1.3c0.7,0.1,1.3,0.6,1.3,1.3&#10;&#9;&#9;v12.5C453.8,314.3,453.1,314.9,452.3,314.9L452.3,314.9z"/>
	<path class="st1_data-analysis-1-53" d="M452.3,358.4c-0.8,0-1.4-0.6-1.4-1.4c0,0,0,0,0,0l0,0v-12.5c-0.1-0.8,0.5-1.5,1.3-1.6c0.8-0.1,1.5,0.5,1.6,1.3&#10;&#9;&#9;v12.7C453.8,357.7,453.1,358.3,452.3,358.4z"/>
	<path class="st1_data-analysis-1-53" d="M445.5,359.6c-0.8,0-1.4-0.6-1.4-1.4c0,0,0,0,0,0l0,0v-12.5c-0.1-0.8,0.5-1.5,1.3-1.6c0.8-0.1,1.5,0.5,1.6,1.3&#10;&#9;&#9;v12.7C446.9,359,446.3,359.6,445.5,359.6L445.5,359.6z"/>
	<path class="st3_data-analysis-1-53 targetColor" d="M467.6,236.4v31.9c0,9-25.3,16.3-56.6,16.3s-56.5-7.3-56.5-16.3v-31.9H467.6z" style="fill: rgb(104, 225, 253);"/>
	<path class="st1_data-analysis-1-53" d="M411,286.1c-37.6,0-58-9.2-58-17.8v-31.9c0-0.8,0.6-1.4,1.4-1.4c0,0,0,0,0,0h113.1c0.8,0,1.4,0.6,1.4,1.4&#10;&#9;&#9;c0,0,0,0,0,0v31.9C469,276.9,448.6,286.1,411,286.1z M355.9,237.9v30.5c0,7,22.6,14.8,55.1,14.8s55.1-7.8,55.1-14.8v-30.5&#10;&#9;&#9;L355.9,237.9z"/>
	<ellipse class="st3_data-analysis-1-53 targetColor" cx="411" cy="236.4" rx="56.6" ry="16.2" style="fill: rgb(104, 225, 253);"/>
	<path class="st1_data-analysis-1-53" d="M411,254.1c-37.6,0-58-9.1-58-17.8s20.4-17.8,58-17.8s58,9.1,58,17.8S448.6,254.1,411,254.1z M411,221.5&#10;&#9;&#9;c-32.4,0-55.1,7.8-55.1,14.8s22.6,14.8,55.1,14.8s55.1-7.8,55.1-14.8S443.4,221.5,411,221.5z"/>
	<path class="st1_data-analysis-1-53" d="M459,268.1c-0.8,0-1.4-0.6-1.4-1.4v0l0,0v-12.5c-0.1-0.8,0.5-1.5,1.3-1.6c0.8-0.1,1.5,0.5,1.6,1.3l0,0v12.7&#10;&#9;&#9;C460.5,267.5,459.8,268.1,459,268.1C459,268.1,459,268.1,459,268.1z"/>
</g>
<g id="files_data-analysis-1-53">
	<rect x="32.2" y="138.7" class="st3_data-analysis-1-53 targetColor" width="152.3" height="198.3" style="fill: rgb(104, 225, 253);"/>
	<path class="st1_data-analysis-1-53" d="M184.6,339.2H32.2c-1.2,0-2.2-1-2.2-2.2c0,0,0,0,0-0.1V138.7c0-1.2,1-2.2,2.2-2.2c0,0,0,0,0,0h152.3&#10;&#9;&#9;c1.2,0,2.2,1,2.2,2.2c0,0,0,0,0,0V337c0.1,1.1-0.7,2.1-1.8,2.2C184.8,339.2,184.7,339.2,184.6,339.2L184.6,339.2z M34.5,334.8&#10;&#9;&#9;h147.9V140.9H34.5V334.8z"/>
	<rect x="50.7" y="155.6" class="st4_data-analysis-1-53" width="152.3" height="198.3"/>
	<path class="st1_data-analysis-1-53" d="M203,356.1H50.7c-1.2,0-2.2-1-2.2-2.2c0,0,0,0,0,0V155.6c0-1.2,1-2.2,2.2-2.2c0,0,0,0,0,0H203&#10;&#9;&#9;c1.2,0,2.2,1,2.2,2.2c0,0,0,0,0,0v198.3C205.2,355.2,204.2,356.1,203,356.1C203,356.2,203,356.2,203,356.1z M52.9,351.6h147.9&#10;&#9;&#9;V157.8H52.9V351.6z"/>
	<rect x="74.8" y="190.8" class="st1_data-analysis-1-53" width="10.4" height="10.4"/>
	<rect x="98.1" y="190.8" class="st1_data-analysis-1-53" width="10.4" height="10.4"/>
	<rect x="121.3" y="190.8" class="st1_data-analysis-1-53" width="10.4" height="10.4"/>
	<path class="st1_data-analysis-1-53" d="M161.3,233.8H74.8c-1.2-0.1-2.2-1.2-2.1-2.4c0.1-1.1,1-2,2.1-2.1h86.4c1.2,0.1,2.2,1.2,2.1,2.4&#10;&#9;&#9;C163.3,232.8,162.4,233.7,161.3,233.8z"/>
	<path class="st1_data-analysis-1-53" d="M183,254.5H74.8c-1.2,0.1-2.3-0.8-2.4-2.1c-0.1-1.2,0.8-2.3,2.1-2.4c0.1,0,0.2,0,0.3,0H183&#10;&#9;&#9;c1.2,0,2.2,1,2.2,2.2c0,0,0,0,0,0c0.1,1.1-0.8,2.1-1.9,2.2C183.2,254.5,183.1,254.5,183,254.5z"/>
	<path class="st1_data-analysis-1-53" d="M172.8,275.2h-98c-1.2-0.1-2.2-1.2-2.1-2.5c0.1-1.1,1-2,2.1-2.1h98c1.3-0.1,2.3,0.8,2.4,2.1&#10;&#9;&#9;c0.1,1.3-0.8,2.3-2.1,2.4H172.8z"/>
	<path class="st1_data-analysis-1-53" d="M121.3,296H74.8c-1.2-0.1-2.2-1.2-2.1-2.5c0.1-1.1,1-2,2.1-2.1h46.3c1.3,0,2.3,1,2.3,2.2c0,1.2-0.8,2.2-2,2.3&#10;&#9;&#9;H121.3z"/>
	<path class="st3_data-analysis-1-53 targetColor" d="M213.4,337.5l-2.1,4.2c-0.7,1.4-2.4,1.9-3.8,1.4l0,0l-51.8-25.1l0,0l4.5-9.3l0,0l51.8,25.1&#10;&#9;&#9;C213.4,334.5,213.9,336.1,213.4,337.5L213.4,337.5z" style="fill: rgb(104, 225, 253);"/>
	<path class="st1_data-analysis-1-53" d="M207.6,344.9c-1.1,0-2.2-0.3-3.2-0.7L154.7,320c-0.5-0.2-0.9-0.7-1.1-1.2c-0.2-0.6-0.2-1.2,0.1-1.7l4.5-9.3&#10;&#9;&#9;c0.5-1.1,1.8-1.6,2.9-1.1l0,0l49.7,24.1c3.7,1.6,5.3,6,3.7,9.6c0,0,0,0,0,0C213.3,343.2,210.6,344.9,207.6,344.9L207.6,344.9z&#10;&#9;&#9; M158.6,317l47.8,23.1c1.5,0.7,3.2,0.1,3.9-1.3c0.7-1.5,0.1-3.2-1.3-3.9l-47.7-23.1L158.6,317z"/>
	<circle class="st3_data-analysis-1-53 targetColor" cx="158" cy="313.3" r="25.1" style="fill: rgb(104, 225, 253);"/>
	<path class="st1_data-analysis-1-53" d="M157.9,340.6c-4.1,0-8.2-0.9-11.9-2.7l0,0c-13.6-6.6-19.2-23-12.6-36.5s23-19.2,36.5-12.6&#10;&#9;&#9;c13.6,6.6,19.2,23,12.6,36.5c-3.2,6.5-8.7,11.4-15.5,13.8C164.1,340.1,161,340.6,157.9,340.6z M148,333.9&#10;&#9;&#9;c11.3,5.5,25,0.8,30.5-10.5s0.8-25-10.5-30.5c-11.3-5.5-25-0.8-30.5,10.5c0,0,0,0,0,0C132,314.7,136.7,328.3,148,333.9z"/>
	<circle class="st4_data-analysis-1-53" cx="158" cy="313.3" r="15.9"/>
	<path class="st1_data-analysis-1-53" d="M157.9,331.5c-10,0-18.1-8.1-18.1-18.1c0-10,8.1-18.1,18.1-18.1c10,0,18.1,8.1,18.1,18.1c0,0,0,0,0,0&#10;&#9;&#9;c0,2.8-0.6,5.5-1.8,8C171.1,327.6,164.8,331.6,157.9,331.5z M157.9,299.7c-7.5,0-13.6,6.2-13.6,13.7c0,7.5,6.2,13.6,13.7,13.6&#10;&#9;&#9;c7.5,0,13.6-6.2,13.6-13.7c0-5.2-3-9.9-7.7-12.2C162,300.1,160,299.7,157.9,299.7z"/>
</g>
<g id="text_data-analysis-1-53">
	<path class="st5_data-analysis-1-53" d="M291.5,220.2h-45.4c-1,0.1-2-0.6-2.1-1.6c-0.1-1,0.6-2,1.6-2.1c0.1,0,0.2,0,0.2,0h45.7c1-0.1,2,0.6,2.1,1.6&#10;&#9;&#9;c0.1,1-0.6,2-1.6,2.1c-0.1,0-0.2,0-0.2,0H291.5z"/>
	<path class="st5_data-analysis-1-53" d="M291.5,239.1h-60.1c-1,0.1-2-0.6-2.1-1.6c-0.1-1,0.6-2,1.6-2.1c0.1,0,0.2,0,0.2,0h60.4c1-0.1,2,0.6,2.1,1.6&#10;&#9;&#9;c0.1,1-0.6,2-1.6,2.1c-0.1,0-0.2,0-0.2,0H291.5z"/>
	<path class="st5_data-analysis-1-53" d="M291.5,258h-60.1c-1,0-1.8-0.8-1.8-1.8c0-1,0.8-1.8,1.8-1.8h60.1c1,0,1.8,0.8,1.8,1.8&#10;&#9;&#9;C293.3,257.2,292.5,258,291.5,258z"/>
	<path class="st5_data-analysis-1-53" d="M291.5,304h-60.1c-1,0-1.9-0.8-1.9-1.8c0-0.9,0.7-1.7,1.6-1.9h60.4c1-0.1,2,0.6,2.1,1.6c0.1,1-0.6,2-1.6,2.1&#10;&#9;&#9;c-0.1,0-0.2,0-0.2,0H291.5z"/>
	<path class="st5_data-analysis-1-53" d="M271.5,322.9h-40.1c-1,0-1.9-0.8-1.9-1.8c0-0.9,0.7-1.7,1.6-1.9h40.4c1-0.1,2,0.6,2.1,1.6c0.1,1-0.6,2-1.6,2.1&#10;&#9;&#9;c-0.1,0-0.2,0-0.2,0H271.5z"/>
</g>
<g id="character_data-analysis-1-53">
	<g id="character-2_data-analysis-1-53">
		<path class="st6_data-analysis-1-53" d="M348.9,129.2c0,0-7.4-41.9,0-68.9c4.7-17.4,22.4-32.8,34.7-26.8c0,0,25.4-20.1,55.2-3.5&#10;&#9;&#9;&#9;c36.9,20.5,20.4,98.9,20.4,98.9L348.9,129.2z"/>
		<path class="st1_data-analysis-1-53" d="M348.9,130.6c-0.6,0-1.2-0.5-1.3-1.1c-0.3-1.7-7.3-42.5,0-69.5c3.1-11.6,12.1-22.7,21.7-27.1&#10;&#9;&#9;&#9;c5.1-2.3,10-2.6,14.1-0.9c4.3-3,28.4-18.5,56-3.1c15.5,8.6,24.1,28.8,24.7,58.3c0.2,14.1-1,28.2-3.7,42.1c-0.1,0.6-0.7,1-1.3,1.1&#10;&#9;&#9;&#9;L348.9,130.6L348.9,130.6z M377.8,33.5c-2.5,0.1-5.1,0.7-7.4,1.8c-9,4.1-17.3,14.6-20.3,25.4c-6.5,24.1-1.2,60.5-0.1,67.3&#10;&#9;&#9;&#9;l108.1-0.4c1.8-9.3,13.4-77.9-19.9-96.4c-28.7-15.9-53.5,3.2-53.7,3.4c-0.4,0.3-0.9,0.4-1.4,0.2C381.4,33.9,379.6,33.5,377.8,33.5&#10;&#9;&#9;&#9;z"/>
		<path class="st0_data-analysis-1-53" d="M385.2,138.9H426c11.8,0,21.3,9.5,21.3,21.3v0v63.3c0,6.4-5.2,11.5-11.5,11.5l0,0h-60.4&#10;&#9;&#9;&#9;c-6.4,0-11.5-5.2-11.5-11.5l0,0v-63.3C363.9,148.4,373.4,138.9,385.2,138.9z"/>
		<path class="st1_data-analysis-1-53" d="M435.8,236.6h-60.4c-7.2,0-13.1-5.9-13.1-13.1v-63.3c0-12.6,10.3-22.9,22.9-22.9H426&#10;&#9;&#9;&#9;c12.6,0,22.9,10.3,22.9,22.9v63.3C448.9,230.8,443,236.6,435.8,236.6z M385.2,140.5c-10.9,0-19.7,8.8-19.7,19.7v63.3&#10;&#9;&#9;&#9;c0,5.5,4.4,9.9,9.9,9.9h60.4c5.5,0,9.9-4.4,9.9-9.9v-63.3c0-10.9-8.8-19.7-19.7-19.7H385.2z"/>
		<path class="st7_data-analysis-1-53" d="M420.8,224c0,0-0.8,23.5-21.5,24.7s-28.2,0.3-28.2,0.3l-13.2,67l-19.2-5.4l8.7-69.8c0,0,4.8-15.7,9.1-16.9&#10;&#9;&#9;&#9;s64.2-1.5,64.2-1.5"/>
		<path class="st1_data-analysis-1-53" d="M357.9,317.6c-0.1,0-0.3,0-0.4,0l-19.2-5.4c-0.7-0.2-1.2-0.9-1.1-1.6l8.7-69.8c0-0.1,0-0.2,0.1-0.2&#10;&#9;&#9;&#9;c1.2-3.9,5.4-16.6,10.1-17.9c4.4-1.2,58.4-1.5,64.6-1.6l0,0c0.8,0,1.5,0.7,1.5,1.5c0,0.3-0.1,0.5-0.2,0.7c0.1,0.2,0.2,0.5,0.2,0.8&#10;&#9;&#9;&#9;c0,0.2-1.1,24.9-22.9,26.1c-15.9,0.9-24,0.6-27,0.4l-13,65.7c-0.1,0.4-0.3,0.8-0.7,1C358.4,317.5,358.2,317.6,357.9,317.6z&#10;&#9;&#9;&#9; M340.4,309.6l16.4,4.6l12.9-65.4c0.2-0.8,0.9-1.3,1.6-1.2c0.1,0,7.7,0.8,27.9-0.4c8-0.4,13.8-4.4,17.2-11.9&#10;&#9;&#9;&#9;c1.6-3.6,2.6-7.4,2.9-11.3c-24,0.2-59.3,0.7-62.3,1.5c-2.1,0.6-5.8,8.6-8,15.8L340.4,309.6z"/>
		<path class="st7_data-analysis-1-53" d="M444,226.2c0,0-0.8,23.5-21.5,24.7s-28.2,0.3-28.2,0.3l-13.2,67l-19.1-5.4l8.8-69.8c0,0,4.8-15.7,9.1-16.9&#10;&#9;&#9;&#9;s64.1-1.5,64.1-1.5"/>
		<path class="st1_data-analysis-1-53" d="M381.2,319.7c-0.1,0-0.3,0-0.4-0.1l-19.2-5.4c-0.7-0.2-1.2-0.9-1.1-1.6l8.8-69.8c0-0.1,0-0.2,0-0.3&#10;&#9;&#9;&#9;c1.2-3.9,5.5-16.6,10.2-17.9c4.3-1.2,58.4-1.5,64.6-1.6l0,0c0.8,0,1.5,0.7,1.5,1.5c0,0.3-0.1,0.5-0.2,0.8c0.1,0.2,0.2,0.5,0.2,0.8&#10;&#9;&#9;&#9;c0,0.2-1.1,24.9-22.9,26.1c-15.9,0.9-24.1,0.6-27,0.4l-13,65.7c-0.1,0.4-0.3,0.8-0.7,1C381.7,319.7,381.4,319.7,381.2,319.7z&#10;&#9;&#9;&#9; M363.6,311.7l16.4,4.6l12.9-65.4c0.2-0.8,0.9-1.3,1.6-1.2c0.1,0,7.7,0.8,27.9-0.4c8-0.4,13.8-4.4,17.2-11.9&#10;&#9;&#9;&#9;c1.6-3.6,2.6-7.4,2.9-11.3c-24,0.2-59.4,0.7-62.3,1.5c-2.1,0.6-5.8,8.6-8,15.8L363.6,311.7z"/>
		<path class="st8_data-analysis-1-53" d="M449.1,181.1c0,0,2.6,25.4,3.1,31.1s-20.7,6.3-20.7,6.3h-21.7c0,0-4-9.8,2.1-10s22.4-1.9,22.4-1.9l-2-19.6"/>
		<path class="st1_data-analysis-1-53" d="M409.8,220.1c-0.6,0-1.2-0.4-1.5-1c-0.3-0.7-2.6-6.8-0.5-10.1c0.9-1.3,2.4-2.1,4-2.1&#10;&#9;&#9;&#9;c4.8-0.2,16.5-1.3,20.8-1.8l-1.8-18c-0.1-0.9,0.5-1.7,1.3-1.8s1.7,0.5,1.8,1.3c0,0.1,0,0.1,0,0.2l2,19.6c0.1,0.9-0.5,1.6-1.4,1.7&#10;&#9;&#9;&#9;c-0.7,0.1-16.5,1.7-22.6,1.9c-0.9,0-1.2,0.4-1.4,0.6c-0.8,1.2-0.3,4.1,0.4,6.2h20.5c6-0.2,16.5-1.4,18.8-3.9&#10;&#9;&#9;&#9;c0.3-0.4,0.3-0.6,0.3-0.7c-0.5-5.7-3-30.8-3.1-31.1c0-0.9,0.6-1.6,1.5-1.7c0.8,0,1.5,0.5,1.7,1.4c0,0.3,2.6,25.5,3.1,31.2&#10;&#9;&#9;&#9;c0.1,1.1-0.3,2.2-1.1,3c-4,4.4-19.4,4.9-21.1,5L409.8,220.1z"/>
		<path class="st8_data-analysis-1-53" d="M398.2,134.3h12.9l0,0v9.9c0,1.7-1.3,3-3,3h-6.9c-1.7,0-3-1.3-3-3V134.3L398.2,134.3z"/>
		<path class="st1_data-analysis-1-53" d="M405.6,148.5h-2c-3.8,0-6.8-3-6.8-6.8v-7.4c0-0.7,0.6-1.3,1.3-1.3h12.9c0.7,0,1.3,0.6,1.3,1.3v7.4&#10;&#9;&#9;&#9;C412.4,145.5,409.4,148.5,405.6,148.5z M399.5,135.6v6.1c0,2.3,1.9,4.2,4.2,4.2h2c2.3,0,4.2-1.9,4.2-4.2l0,0v-6.1H399.5z"/>
		<ellipse class="st8_data-analysis-1-53" cx="367.8" cy="100.8" rx="12.5" ry="10.8"/>
		<path class="st1_data-analysis-1-53" d="M367.8,112.9c-7.6,0-13.9-5.4-13.9-12.1s6.2-12.1,13.9-12.1s13.9,5.4,13.9,12.1S375.4,112.9,367.8,112.9z&#10;&#9;&#9;&#9; M367.8,91.3c-6.2,0-11.2,4.3-11.2,9.5s5,9.5,11.2,9.5s11.2-4.2,11.2-9.5S374,91.3,367.8,91.3z"/>
		<ellipse class="st8_data-analysis-1-53" cx="440.9" cy="100.8" rx="12.5" ry="10.8"/>
		<path class="st1_data-analysis-1-53" d="M440.9,112.9c-7.6,0-13.9-5.4-13.9-12.1s6.2-12.1,13.9-12.1s13.9,5.4,13.9,12.1S448.6,112.9,440.9,112.9z&#10;&#9;&#9;&#9; M440.9,91.3c-6.2,0-11.2,4.3-11.2,9.5s5,9.5,11.2,9.5s11.2-4.3,11.2-9.5S447.1,91.3,440.9,91.3z"/>
		<path class="st8_data-analysis-1-53" d="M404.7,136L404.7,136c-20.9,0-37.8-16.9-37.8-37.8V80.6c0-9.1,13.9-26.1,23-26.1c0,0,19.5,29.1,52.7,17.9&#10;&#9;&#9;&#9;v25.7C442.5,119.1,425.6,136,404.7,136C404.7,136,404.7,136,404.7,136z"/>
		<path class="st1_data-analysis-1-53" d="M404.7,137.3c-21.6,0-39.1-17.5-39.2-39.2V80.6c0-9.7,14.3-27.4,24.3-27.4c0.4,0,0.9,0.2,1.1,0.6&#10;&#9;&#9;&#9;c0.8,1.2,19.3,28.1,51.2,17.4c0.7-0.2,1.4,0.1,1.7,0.8c0,0.1,0.1,0.3,0.1,0.4v25.7C443.8,119.8,426.3,137.3,404.7,137.3z&#10;&#9;&#9;&#9; M389.2,55.9c-7.4,0.8-21,15.3-21,24.7v17.5c-0.7,20.2,15.1,37,35.3,37.7c20.2,0.7,37-15.1,37.7-35.3c0-0.8,0-1.6,0-2.4V74.3&#10;&#9;&#9;&#9;C411.2,83.2,392.3,60.1,389.2,55.9L389.2,55.9z"/>
		<circle class="st1_data-analysis-1-53" cx="383.6" cy="96.7" r="3.5"/>
		<circle class="st1_data-analysis-1-53" cx="418.2" cy="95.3" r="3.5"/>
		<path class="st4_data-analysis-1-53" d="M416.1,112.9c-0.2,7.6-6.6,13.6-14.2,13.4c-7.3-0.2-13.2-6.1-13.4-13.4H416.1z"/>
		<path class="st1_data-analysis-1-53" d="M402.3,128c-8.4,0-15.1-6.8-15.1-15.1c0-0.7,0.6-1.3,1.3-1.3h27.6c0.7,0,1.3,0.6,1.3,1.3&#10;&#9;&#9;&#9;C417.4,121.2,410.6,128,402.3,128z M389.9,114.2c0.7,6.9,6.9,11.8,13.7,11.1c5.8-0.6,10.5-5.2,11.1-11.1H389.9z"/>
		<path class="st1_data-analysis-1-53" d="M400.1,107.6c1.2,0,2.3-0.1,3.5-0.3c0.7-0.1,1.2-0.8,1.1-1.5c-0.1-0.7-0.8-1.2-1.5-1.1&#10;&#9;&#9;&#9;c-1.6,0.3-3.3,0.3-4.9,0.1c-0.1-1.2,1.2-4.7,2.9-8c0.3-0.7,0.1-1.4-0.6-1.8c-0.6-0.3-1.4-0.1-1.8,0.6c0,0,0,0,0,0&#10;&#9;&#9;&#9;c-1.2,2.4-4,8.2-3,10.5c0.3,0.6,0.8,1,1.4,1.2C398.2,107.5,399.1,107.6,400.1,107.6z"/>
		<path class="st1_data-analysis-1-53" d="M377.6,84.6c-1.5,0-2.6-1.2-2.6-2.7s1.2-2.7,2.6-2.7l16.7-0.2c1.5,0,2.7,1.2,2.7,2.6c0,1.5-1.2,2.7-2.6,2.7&#10;&#9;&#9;&#9;L377.6,84.6L377.6,84.6z"/>
		<path class="st1_data-analysis-1-53" d="M433.3,84.3L433.3,84.3l-16.7-0.1c-1.5,0-2.6-1.2-2.6-2.7s1.2-2.7,2.6-2.7l0,0l16.7,0.1&#10;&#9;&#9;&#9;c1.5,0,2.6,1.2,2.6,2.7S434.7,84.3,433.3,84.3L433.3,84.3L433.3,84.3z"/>
	</g>
	<path class="st3_data-analysis-1-53 targetColor" d="M357.7,218.9h83.5c2.7,0,4.9,2.2,4.9,4.9v0c0,2.7-2.2,4.9-4.9,4.9h-83.5c-2.7,0-4.9-2.2-4.9-4.9v0&#10;&#9;&#9;C352.8,221.1,355,218.9,357.7,218.9z" style="fill: rgb(104, 225, 253);"/>
	<path class="st1_data-analysis-1-53" d="M441.2,230.3h-83.5c-3.6,0-6.5-2.9-6.5-6.5s2.9-6.5,6.5-6.5h83.5c3.6,0,6.5,2.9,6.5,6.5&#10;&#9;&#9;S444.8,230.3,441.2,230.3z M357.7,220.5c-1.8,0.1-3.2,1.7-3.1,3.5c0.1,1.7,1.4,3,3.1,3.1h83.5c1.8-0.1,3.2-1.7,3.1-3.5&#10;&#9;&#9;c-0.1-1.7-1.4-3-3.1-3.1H357.7z"/>
	<path class="st3_data-analysis-1-53 targetColor" d="M413.1,226.2H341c-3.2-0.2-6-2.4-6.9-5.4l-12.8-49.6c-0.8-3,1-5.4,4-5.4h72c3.2,0.2,6,2.3,6.9,5.4l12.8,49.6&#10;&#9;&#9;C417.9,223.8,416.1,226.2,413.1,226.2z" style="fill: rgb(104, 225, 253);"/>
	<path class="st1_data-analysis-1-53" d="M413.1,227.8H341c-3.9-0.2-7.3-2.8-8.4-6.6l-12.8-49.6c-0.5-1.8-0.2-3.8,0.9-5.3c1.1-1.4,2.8-2.2,4.6-2.1h72&#10;&#9;&#9;c3.9,0.2,7.3,2.8,8.4,6.6l12.8,49.6c0.5,1.8,0.2,3.8-0.9,5.3C416.5,227,414.8,227.8,413.1,227.8z M325.4,167.3&#10;&#9;&#9;c-0.8,0-1.6,0.3-2.1,0.9c-0.5,0.7-0.6,1.7-0.4,2.5l12.8,49.6c0.7,2.4,2.8,4.1,5.3,4.3h72c0.8,0.1,1.6-0.3,2.1-0.9&#10;&#9;&#9;c0.5-0.7,0.7-1.7,0.4-2.5l-12.8-49.6c-0.7-2.4-2.8-4.1-5.3-4.2L325.4,167.3z"/>
	<polyline class="st0_data-analysis-1-53" points="427,157.4 428.7,185.4 454.8,182.2 446.1,153.1 &#9;"/>
	<polygon class="st1_data-analysis-1-53" points="427.2,187.1 425.5,157.5 428.6,157.3 430.2,183.6 452.7,180.8 444.6,153.6 447.6,152.7 456.8,183.5 &#9;&#10;&#9;&#9;"/>
	<path class="st2_data-analysis-1-53" d="M340.9,311.3c0,0-22.8,5-22.4,9.8s32.8,6,35.1,5s2.9-10,2.9-10L340.9,311.3z"/>
	<path class="st1_data-analysis-1-53" d="M348.2,327.9c-8.9,0-24.6-1.4-29.2-4c-1.1-0.5-1.8-1.5-2-2.7c-0.4-5.5,16.4-9.8,23.6-11.4&#10;&#9;&#9;c0.2-0.1,0.5-0.1,0.8,0l15.5,4.8c0.7,0.2,1.1,0.8,1.1,1.5c-0.5,8.9-2.8,10.8-3.7,11.2C353.5,327.7,351.3,327.9,348.2,327.9z&#10;&#9;&#9; M320,320.9c2.1,3,29.5,4.9,33,3.8c0.7-0.5,1.5-3.9,1.9-7.5l-14-4.3c-1.4,0.3-6.1,1.4-10.8,3C321.1,318.7,320.1,320.6,320,320.9&#10;&#9;&#9;L320,320.9z M320,320.9L320,320.9z"/>
	<path class="st2_data-analysis-1-53" d="M365.4,313.5c0,0-22.8,5-22.4,9.8s32.8,6.1,35.1,5s2.9-10,2.9-10L365.4,313.5z"/>
	<path class="st1_data-analysis-1-53" d="M372.8,330.1c-8.9,0-24.6-1.3-29.2-4c-1.1-0.5-1.8-1.5-2-2.7c-0.4-5.5,16.4-9.8,23.6-11.4&#10;&#9;&#9;c0.2-0.1,0.5-0.1,0.8,0l15.6,4.8c0.7,0.2,1.1,0.8,1,1.5c-0.5,8.8-2.8,10.8-3.7,11.2C378.1,329.9,375.8,330.1,372.8,330.1z&#10;&#9;&#9; M344.5,323.1c2.1,3,29.5,4.9,33,3.8c0.6-0.5,1.5-3.9,1.8-7.5l-14-4.3c-1.4,0.3-6.1,1.4-10.9,3&#10;&#9;&#9;C345.7,320.9,344.6,322.8,344.5,323.1z M344.5,323.2L344.5,323.2z"/>
</g>
</svg>